<svg width="225" height="63" viewBox="0 0 225 63" fill="none" xmlns="http://www.w3.org/2000/svg">
<mask id="mask0_6_298" style="mask-type:luminance" maskUnits="userSpaceOnUse" x="0" y="5" width="23" height="31">
<path d="M0 5H22.8473V35.3028H0V5Z" fill="white"/>
</mask>
<g mask="url(#mask0_6_298)">
<mask id="mask1_6_298" style="mask-type:luminance" maskUnits="userSpaceOnUse" x="0" y="5" width="23" height="31">
<path d="M11.4448 10.8755C13.9885 10.8755 16.1808 12.9766 16.1808 15.5081C16.1808 18.0804 13.9885 20.1814 11.4448 20.1814C8.98947 20.1814 6.70886 18.1242 6.70886 15.5081C6.70886 12.9352 8.94534 10.8755 11.4448 10.8755ZM6.49057 23.3114C7.98216 25.199 10.6999 26.0558 12.8052 26.0558C17.9348 26.0558 22.7579 21.9809 22.7579 15.5063C22.7579 9.07315 17.9336 5 12.8034 5C10.6999 5 7.98037 5.81545 6.49057 7.65808V5.51505H0V35.2696L6.49057 32.1483V23.3114Z" fill="white"/>
</mask>
<g mask="url(#mask1_6_298)">
<path d="M-0.763367 4.25342H23.8177V58.6073H-0.763367V4.25342Z" fill="black"/>
</g>
</g>
<mask id="mask2_6_298" style="mask-type:luminance" maskUnits="userSpaceOnUse" x="0" y="26" width="23" height="32">
<path d="M0.251099 26.6519H23V57.9999H0.251099V26.6519Z" fill="white"/>
</mask>
<g mask="url(#mask2_6_298)">
<mask id="mask3_6_298" style="mask-type:luminance" maskUnits="userSpaceOnUse" x="0" y="26" width="23" height="32">
<path d="M11.5987 52.0531C9.05511 52.0531 6.86276 49.9089 6.86276 47.3792C6.86276 44.8494 9.05511 42.7472 11.5987 42.7472C14.0541 42.7472 16.2906 44.8062 16.2906 47.3792C16.2906 49.9521 14.0982 52.0531 11.5987 52.0531ZM16.5536 29.889V39.5741C15.0614 37.6865 12.2995 36.8728 10.196 36.8728C5.10995 36.8728 0.285706 40.9046 0.285706 47.3792C0.285706 53.8537 5.10876 57.9286 10.196 57.9286C12.3013 57.9286 15.0632 57.1138 16.5536 55.1842V57.4136H22.9994V26.7888L16.5536 29.889Z" fill="white"/>
</mask>
<g mask="url(#mask3_6_298)">
<path d="M-0.763367 4.25317H23.8177V58.607H-0.763367V4.25317Z" fill="black"/>
</g>
</g>
<path d="M57.5488 31.4121V25.1401L57.4411 22.9124C58.6124 24.5516 60.6295 25.7101 63.0262 25.7101C68.233 25.7101 71.9263 21.2917 71.9263 15.8747C71.9263 10.5121 68.2869 6.0752 62.936 6.0752C60.7736 6.0752 58.6476 7.05526 57.2794 8.97948V6.64516H52V31.4121H57.5488ZM61.9813 20.6673C59.5847 20.6673 57.4949 18.7257 57.4949 15.8747C57.4949 13.2021 59.4769 11.0995 61.945 11.0995C64.4131 11.0995 66.449 12.8997 66.449 15.8747C66.449 18.9933 64.3416 20.6673 61.9813 20.6673Z" fill="black"/>
<path d="M82.6446 25.7099C85.3645 25.7099 87.562 24.6406 88.6971 22.7697V25.104H93.9765V6.64496H88.7158V9.01519C87.5808 7.12689 85.3645 6.05762 82.6083 6.05762C77.6896 6.05762 74.0502 10.4934 74.0502 15.8745C74.0502 21.2915 77.6358 25.7099 82.6446 25.7099ZM83.9952 20.6497C81.6348 20.6497 79.5451 19.0105 79.5451 15.8745C79.5451 12.8995 81.5634 11.0993 84.0139 11.0993C86.4996 11.0993 88.4816 13.2204 88.4816 15.8745C88.4816 18.583 86.5359 20.6497 83.9952 20.6497Z" fill="black"/>
<path d="M103.83 25.1041V16.6056C103.83 13.1846 105.505 11.3137 108.298 11.3137H110.153V6.64502H107.991C105.811 6.64502 104.424 7.71429 103.577 9.24694V6.64502H98.2628V25.1041H103.83Z" fill="black"/>
<path d="M120.278 25.7099C122.998 25.7099 125.196 24.6406 126.331 22.7697V25.104H131.61V6.64496H126.349V9.01519C125.214 7.12689 122.998 6.05762 120.242 6.05762C115.323 6.05762 111.684 10.4934 111.684 15.8745C111.684 21.2915 115.269 25.7099 120.278 25.7099ZM121.629 20.6497C119.268 20.6497 117.179 19.0105 117.179 15.8745C117.179 12.8995 119.197 11.0993 121.647 11.0993C124.133 11.0993 126.115 13.2204 126.115 15.8745C126.115 18.583 124.169 20.6497 121.629 20.6497Z" fill="black"/>
<path d="M143.715 25.7099C146.581 25.7099 148.436 24.1958 149.445 22.7697V25.1041H154.705V0H149.193V6.82339L149.3 8.85419C148.4 7.55439 146.418 6.05764 143.769 6.05764C138.274 6.05764 134.815 10.4934 134.815 15.8745C134.815 21.2915 138.383 25.7099 143.715 25.7099ZM144.743 20.6671C142.04 20.6671 140.275 18.583 140.275 15.8745C140.275 13.0421 142.184 11.0993 144.743 11.0993C147.282 11.0993 149.228 13.2019 149.228 15.8745C149.228 18.6004 147.265 20.6671 144.743 20.6671Z" fill="black"/>
<path d="M167.837 25.6925C173.764 25.6925 177.855 21.3089 177.855 15.8745C177.855 10.476 173.764 6.05762 167.856 6.05762C161.983 6.05762 157.929 10.4934 157.929 15.8745C157.929 21.2915 162 25.6925 167.837 25.6925ZM167.892 20.6323C165.279 20.6323 163.424 18.6896 163.424 15.8745C163.424 13.0768 165.279 11.1178 167.892 11.1178C170.505 11.1178 172.36 13.0768 172.36 15.8745C172.36 18.6896 170.505 20.6323 167.892 20.6323Z" fill="black"/>
<path d="M199.239 25.1041L193.059 13.8437L198.59 6.64499H191.852L186.609 14.2353V0H181.06V25.1041H186.609V20.0265L189.042 17.4605L193.041 25.1041H199.239Z" fill="black"/>
<path d="M208.714 25.7099C213.254 25.7099 216.858 23.7139 216.858 19.402C216.858 15.5721 214.209 14.2353 209.957 13.6294C206.984 13.2019 206.588 12.9343 206.588 11.9009C206.588 11.1352 207.147 10.4934 208.534 10.4934C210.12 10.4934 210.858 11.2603 210.93 12.2937L216.353 12.3296C216.353 8.5518 213.145 6.05762 208.516 6.05762C203.849 6.05762 201.147 8.2842 201.147 12.0261C201.147 15.9278 204.246 17.5311 207.957 17.9771C210.137 18.2621 211.182 18.6363 211.182 19.7229C211.182 20.703 210.533 21.3981 208.75 21.3981C206.786 21.3981 205.885 20.4354 205.795 19.0823L200.48 19.0464C200.48 22.3596 202.985 25.7099 208.714 25.7099Z" fill="black"/>
<path d="M74.9707 36.8984C72.5026 36.8984 70.4129 37.9851 68.7191 40.6044C67.6555 38.2168 65.6922 36.8984 62.7556 36.8984C60.2512 36.8984 58.2153 38.0917 57.2607 39.7135L57.1892 37.4858H52V55.9449H57.4774V46.7871C57.4774 43.8643 59.2063 41.9227 61.0981 41.9227C62.9536 41.9227 64.2151 43.0986 64.2151 46.1627V55.9449H69.6913V46.7871C69.6913 43.8643 71.4039 41.9227 73.3132 41.9227C75.1687 41.9227 76.4303 43.1159 76.4303 46.1627V55.9449H81.9065V46.0388C81.9065 40.3368 79.6902 36.8984 74.9707 36.8984Z" fill="black"/>
<path d="M93.6518 56.5507C96.3717 56.5507 98.5692 55.4815 99.7043 53.6105V55.9449H104.984V37.4858H99.723V39.856C98.588 37.9677 96.3717 36.8984 93.6155 36.8984C88.6968 36.8984 85.0574 41.3342 85.0574 46.7153C85.0574 52.1323 88.643 56.5507 93.6518 56.5507ZM95.0024 51.4905C92.6421 51.4905 90.5523 49.8513 90.5523 46.7153C90.5523 43.7404 92.5706 41.9401 95.0211 41.9401C97.5068 41.9401 99.4888 44.0613 99.4888 46.7153C99.4888 49.4238 97.5431 51.4905 95.0024 51.4905Z" fill="black"/>
<path d="M118.17 62.9999C124.349 62.9999 128.115 59.4017 128.115 54.1458V37.4858H122.855V39.856C121.99 38.4658 120.008 36.8984 116.891 36.8984C111.703 36.8984 108.189 41.3342 108.189 46.3052C108.189 51.2948 111.757 55.3749 117.071 55.3749C119.486 55.3749 121.593 54.7157 122.836 52.6664V54.1631C122.836 56.5681 121.485 58.4217 118.17 58.4217C115.539 58.4217 114.549 57.4775 114.152 55.8197H108.946C109.001 59.4191 111.703 62.9999 118.17 62.9999ZM118.134 50.6715C115.612 50.6715 113.684 48.9071 113.684 46.2878C113.684 43.5979 115.612 41.9401 118.153 41.9401C120.692 41.9401 122.62 44.0068 122.62 46.2878C122.62 48.6581 120.675 50.6715 118.134 50.6715Z" fill="black"/>
<path d="M139.915 56.5507C142.635 56.5507 144.832 55.4815 145.967 53.6105V55.9449H151.247V37.4858H145.986V39.856C144.851 37.9677 142.635 36.8984 139.878 36.8984C134.96 36.8984 131.32 41.3342 131.32 46.7153C131.32 52.1323 134.906 56.5507 139.915 56.5507ZM141.265 51.4905C138.905 51.4905 136.815 49.8513 136.815 46.7153C136.815 43.7404 138.833 41.9401 141.284 41.9401C143.77 41.9401 145.752 44.0613 145.752 46.7153C145.752 49.4238 143.806 51.4905 141.265 51.4905Z" fill="black"/>
<path d="M171.009 55.9452V51.3483H162.073L170.577 40.8538V37.4861H154.866V42.0829H163.01L154.417 52.6308V55.9452H171.009Z" fill="black"/>
<path d="M176.719 35.3126C178.881 35.3126 180.052 34.0116 180.052 32.355C180.052 30.7332 178.881 29.3789 176.737 29.3789C174.629 29.3789 173.459 30.7332 173.459 32.355C173.459 33.9943 174.648 35.3126 176.719 35.3126ZM179.511 55.945V37.4859H173.962V55.945H179.511Z" fill="black"/>
<path d="M189.365 55.9449V46.7871C189.365 43.4901 191.293 41.9227 193.401 41.9227C195.473 41.9227 196.879 43.0986 196.879 46.1627V55.9449H202.427V46.0388C202.427 40.3368 200.049 36.8984 194.968 36.8984C192.392 36.8984 190.176 38.0557 189.114 39.7135V37.4858H183.817V55.9449H189.365Z" fill="black"/>
<path d="M225 46.5728C225 41.3168 221.27 36.8984 215.433 36.8984C209.596 36.8984 205.578 41.3342 205.578 46.7153C205.578 52.0964 209.615 56.5334 215.433 56.5334C220.442 56.5334 223.775 53.2004 224.604 49.9231H218.658C218.245 50.9912 217.271 51.8114 215.326 51.8114C213.182 51.8114 211.578 50.5464 211.127 48.0869H224.892C224.964 47.517 225 47.1613 225 46.5728ZM211.344 44.381C212.028 42.2436 213.741 41.406 215.452 41.406C217.452 41.406 219.145 42.6711 219.325 44.381H211.344Z" fill="black"/>
</svg>
