<svg width="48" height="48" viewBox="0 0 48 48" fill="none" xmlns="http://www.w3.org/2000/svg">
<path d="M19.9796 34.5179C22.6496 34.5179 24.8141 32.6063 24.8141 29.6834V8H30.612C30.2867 11.9545 34.2179 15.7744 38.5532 15.687V21.1389C34.8456 21.1389 31.6928 19.5712 30.5954 18.7012V29.6834C30.5954 34.5179 26.7923 40 19.9796 40C13.167 40 9.44678 34.5179 9.44678 29.6834C9.44678 22.86 16.6677 18.9027 21.4502 19.8699V25.4231C21.2096 25.338 20.5891 25.2121 20.0607 25.2121C17.3685 25.1129 15.1452 27.2964 15.1452 29.6834C15.1452 32.3534 17.3096 34.5179 19.9796 34.5179Z" fill="black"/>
</svg>
