<svg width="48" height="48" viewBox="0 0 48 48" fill="none" xmlns="http://www.w3.org/2000/svg">
<path fill-rule="evenodd" clip-rule="evenodd" d="M39.8462 10.2424C41.581 10.7094 42.9488 12.0772 43.4158 13.812C44.2832 16.9812 44.2498 23.5866 44.2498 23.5866C44.2498 23.5866 44.2498 30.1587 43.4158 33.3279C42.9488 35.0627 41.581 36.4305 39.8462 36.8975C36.677 37.7316 23.9999 37.7316 23.9999 37.7316C23.9999 37.7316 11.3562 37.7316 8.15361 36.8642C6.41885 36.3971 5.05107 35.0293 4.58402 33.2946C3.75 30.1587 3.75 23.5533 3.75 23.5533C3.75 23.5533 3.75 16.9812 4.58402 13.812C5.05107 12.0772 6.45221 10.6761 8.15361 10.209C11.3229 9.375 23.9999 9.375 23.9999 9.375C23.9999 9.375 36.677 9.375 39.8462 10.2424ZM30.5052 23.3216L19.9632 29.3933V17.25L30.5052 23.3216Z" fill="black"/>
</svg>
