<svg width="225" height="64" viewBox="0 0 225 64" fill="none" xmlns="http://www.w3.org/2000/svg">
<rect width="225" height="63" transform="translate(0 0.5)" fill="white"/>
<mask id="mask0_6_299" style="mask-type:luminance" maskUnits="userSpaceOnUse" x="0" y="5" width="23" height="31">
<path d="M0 5.5H22.8473V35.8028H0V5.5Z" fill="white"/>
</mask>
<g mask="url(#mask0_6_299)">
<mask id="mask1_6_299" style="mask-type:luminance" maskUnits="userSpaceOnUse" x="0" y="5" width="23" height="31">
<path d="M11.4448 11.3755C13.9885 11.3755 16.1808 13.4766 16.1808 16.0081C16.1808 18.5804 13.9885 20.6814 11.4448 20.6814C8.98947 20.6814 6.70886 18.6242 6.70886 16.0081C6.70886 13.4352 8.94534 11.3755 11.4448 11.3755ZM6.49057 23.8114C7.98216 25.699 10.6999 26.5558 12.8052 26.5558C17.9348 26.5558 22.7579 22.4809 22.7579 16.0063C22.7579 9.57315 17.9336 5.5 12.8034 5.5C10.6999 5.5 7.98037 6.31545 6.49057 8.15808V6.01505H0V35.7696L6.49057 32.6483V23.8114Z" fill="white"/>
</mask>
<g mask="url(#mask1_6_299)">
<path d="M-0.76339 4.75342H23.8177V59.1073H-0.76339V4.75342Z" fill="black"/>
</g>
</g>
<mask id="mask2_6_299" style="mask-type:luminance" maskUnits="userSpaceOnUse" x="0" y="27" width="23" height="32">
<path d="M0.251083 27.152H23V58.5H0.251083V27.152Z" fill="white"/>
</mask>
<g mask="url(#mask2_6_299)">
<mask id="mask3_6_299" style="mask-type:luminance" maskUnits="userSpaceOnUse" x="0" y="27" width="23" height="32">
<path d="M11.5987 52.5534C9.05508 52.5534 6.86273 50.4092 6.86273 47.8794C6.86273 45.3497 9.05508 43.2475 11.5987 43.2475C14.0541 43.2475 16.2906 45.3065 16.2906 47.8794C16.2906 50.4523 14.0982 52.5534 11.5987 52.5534ZM16.5536 30.3893V40.0743C15.0614 38.1868 12.2995 37.3731 10.196 37.3731C5.10992 37.3731 0.285675 41.4048 0.285675 47.8794C0.285675 54.354 5.10873 58.4289 10.196 58.4289C12.3013 58.4289 15.0632 57.614 16.5536 55.6845V57.9138H22.9994V27.2891L16.5536 30.3893Z" fill="white"/>
</mask>
<g mask="url(#mask3_6_299)">
<path d="M-0.763382 4.75342H23.8177V59.1073H-0.763382V4.75342Z" fill="black"/>
</g>
</g>
<path d="M57.5488 31.9121V25.6401L57.4411 23.4124C58.6124 25.0516 60.6295 26.2101 63.0262 26.2101C68.233 26.2101 71.9263 21.7917 71.9263 16.3747C71.9263 11.0121 68.2869 6.5752 62.936 6.5752C60.7736 6.5752 58.6476 7.55526 57.2794 9.47948V7.14516H52V31.9121H57.5488ZM61.9813 21.1673C59.5847 21.1673 57.4949 19.2257 57.4949 16.3747C57.4949 13.7021 59.4769 11.5995 61.945 11.5995C64.4131 11.5995 66.449 13.3997 66.449 16.3747C66.449 19.4933 64.3416 21.1673 61.9813 21.1673Z" fill="black"/>
<path d="M82.6446 26.21C85.3645 26.21 87.562 25.1408 88.6971 23.2698V25.6042H93.9765V7.14508H88.7158V9.51531C87.5808 7.62701 85.3645 6.55774 82.6083 6.55774C77.6896 6.55774 74.0502 10.9935 74.0502 16.3746C74.0502 21.7916 77.6358 26.21 82.6446 26.21ZM83.9952 21.1498C81.6348 21.1498 79.5451 19.5106 79.5451 16.3746C79.5451 13.3997 81.5634 11.5994 84.0139 11.5994C86.4996 11.5994 88.4816 13.7206 88.4816 16.3746C88.4816 19.0831 86.5359 21.1498 83.9952 21.1498Z" fill="black"/>
<path d="M103.83 25.6041V17.1056C103.83 13.6846 105.505 11.8137 108.298 11.8137H110.153V7.14502H107.991C105.811 7.14502 104.424 8.21429 103.577 9.74694V7.14502H98.2628V25.6041H103.83Z" fill="black"/>
<path d="M120.278 26.21C122.998 26.21 125.196 25.1408 126.331 23.2698V25.6042H131.61V7.14508H126.349V9.51531C125.214 7.62701 122.998 6.55774 120.242 6.55774C115.323 6.55774 111.684 10.9935 111.684 16.3746C111.684 21.7916 115.269 26.21 120.278 26.21ZM121.629 21.1498C119.268 21.1498 117.179 19.5106 117.179 16.3746C117.179 13.3997 119.197 11.5994 121.647 11.5994C124.133 11.5994 126.115 13.7206 126.115 16.3746C126.115 19.0831 124.169 21.1498 121.629 21.1498Z" fill="black"/>
<path d="M143.715 26.2099C146.58 26.2099 148.436 24.6958 149.444 23.2697V25.6041H154.705V0.5H149.193V7.32339L149.3 9.35419C148.4 8.05439 146.418 6.55764 143.769 6.55764C138.274 6.55764 134.815 10.9934 134.815 16.3745C134.815 21.7915 138.383 26.2099 143.715 26.2099ZM144.743 21.1671C142.04 21.1671 140.275 19.083 140.275 16.3745C140.275 13.5421 142.184 11.5993 144.743 11.5993C147.282 11.5993 149.228 13.7019 149.228 16.3745C149.228 19.1004 147.265 21.1671 144.743 21.1671Z" fill="black"/>
<path d="M167.837 26.1927C173.764 26.1927 177.855 21.809 177.855 16.3746C177.855 10.9761 173.764 6.55774 167.856 6.55774C161.983 6.55774 157.929 10.9935 157.929 16.3746C157.929 21.7916 162 26.1927 167.837 26.1927ZM167.892 21.1325C165.279 21.1325 163.423 19.1897 163.423 16.3746C163.423 13.5769 165.279 11.6179 167.892 11.6179C170.504 11.6179 172.36 13.5769 172.36 16.3746C172.36 19.1897 170.504 21.1325 167.892 21.1325Z" fill="black"/>
<path d="M199.239 25.6041L193.059 14.3437L198.59 7.14499H191.852L186.609 14.7353V0.5H181.06V25.6041H186.609V20.5265L189.042 17.9605L193.041 25.6041H199.239Z" fill="black"/>
<path d="M208.714 26.21C213.254 26.21 216.858 24.214 216.858 19.9022C216.858 16.0723 214.209 14.7354 209.957 14.1295C206.984 13.702 206.588 13.4344 206.588 12.4011C206.588 11.6353 207.147 10.9935 208.534 10.9935C210.12 10.9935 210.858 11.7604 210.93 12.7938L216.353 12.8297C216.353 9.05193 213.145 6.55774 208.516 6.55774C203.849 6.55774 201.147 8.78432 201.147 12.5262C201.147 16.4279 204.246 18.0312 207.957 18.4772C210.137 18.7622 211.182 19.1364 211.182 20.2231C211.182 21.2031 210.533 21.8982 208.75 21.8982C206.786 21.8982 205.885 20.9355 205.795 19.5824L200.48 19.5465C200.48 22.8597 202.985 26.21 208.714 26.21Z" fill="black"/>
<path d="M74.9707 37.3984C72.5026 37.3984 70.4129 38.4851 68.7191 41.1044C67.6555 38.7168 65.6922 37.3984 62.7556 37.3984C60.2512 37.3984 58.2153 38.5917 57.2607 40.2135L57.1892 37.9858H52V56.4449H57.4774V47.2871C57.4774 44.3643 59.2063 42.4227 61.0981 42.4227C62.9536 42.4227 64.2151 43.5986 64.2151 46.6627V56.4449H69.6913V47.2871C69.6913 44.3643 71.4039 42.4227 73.3132 42.4227C75.1687 42.4227 76.4303 43.6159 76.4303 46.6627V56.4449H81.9065V46.5388C81.9065 40.8368 79.6902 37.3984 74.9707 37.3984Z" fill="black"/>
<path d="M93.6518 57.0507C96.3718 57.0507 98.5693 55.9815 99.7043 54.1105V56.4449H104.984V37.9858H99.7231V40.356C98.588 38.4677 96.3718 37.3984 93.6155 37.3984C88.6969 37.3984 85.0574 41.8342 85.0574 47.2153C85.0574 52.6323 88.643 57.0507 93.6518 57.0507ZM95.0024 51.9905C92.6421 51.9905 90.5523 50.3513 90.5523 47.2153C90.5523 44.2404 92.5706 42.4401 95.0212 42.4401C97.5068 42.4401 99.4888 44.5613 99.4888 47.2153C99.4888 49.9238 97.5431 51.9905 95.0024 51.9905Z" fill="black"/>
<path d="M118.17 63.4999C124.349 63.4999 128.115 59.9017 128.115 54.6458V37.9858H122.854V40.356C121.99 38.9658 120.008 37.3984 116.891 37.3984C111.703 37.3984 108.189 41.8342 108.189 46.8052C108.189 51.7948 111.757 55.8749 117.071 55.8749C119.486 55.8749 121.593 55.2157 122.836 53.1664V54.6631C122.836 57.0681 121.485 58.9217 118.17 58.9217C115.539 58.9217 114.549 57.9775 114.152 56.3197H108.946C109.001 59.9191 111.703 63.4999 118.17 63.4999ZM118.134 51.1715C115.612 51.1715 113.684 49.4071 113.684 46.7878C113.684 44.0979 115.612 42.4401 118.153 42.4401C120.692 42.4401 122.62 44.5068 122.62 46.7878C122.62 49.1581 120.675 51.1715 118.134 51.1715Z" fill="black"/>
<path d="M139.915 57.0507C142.635 57.0507 144.832 55.9815 145.967 54.1105V56.4449H151.247V37.9858H145.986V40.356C144.851 38.4677 142.635 37.3984 139.878 37.3984C134.96 37.3984 131.32 41.8342 131.32 47.2153C131.32 52.6323 134.906 57.0507 139.915 57.0507ZM141.265 51.9905C138.905 51.9905 136.815 50.3513 136.815 47.2153C136.815 44.2404 138.833 42.4401 141.284 42.4401C143.77 42.4401 145.752 44.5613 145.752 47.2153C145.752 49.9238 143.806 51.9905 141.265 51.9905Z" fill="black"/>
<path d="M171.009 56.4452V51.8483H162.073L170.577 41.3538V37.9861H154.866V42.5829H163.01L154.416 53.1308V56.4452H171.009Z" fill="black"/>
<path d="M176.719 35.8127C178.881 35.8127 180.052 34.5118 180.052 32.8551C180.052 31.2333 178.881 29.879 176.737 29.879C174.629 29.879 173.459 31.2333 173.459 32.8551C173.459 34.4944 174.648 35.8127 176.719 35.8127ZM179.511 56.4451V37.986H173.962V56.4451H179.511Z" fill="black"/>
<path d="M189.365 56.4449V47.2871C189.365 43.9901 191.293 42.4227 193.401 42.4227C195.473 42.4227 196.879 43.5986 196.879 46.6627V56.4449H202.427V46.5388C202.427 40.8368 200.049 37.3984 194.968 37.3984C192.392 37.3984 190.176 38.5557 189.114 40.2135V37.9858H183.817V56.4449H189.365Z" fill="black"/>
<path d="M225 47.0728C225 41.8168 221.27 37.3984 215.433 37.3984C209.596 37.3984 205.579 41.8342 205.579 47.2153C205.579 52.5964 209.615 57.0334 215.433 57.0334C220.442 57.0334 223.775 53.7004 224.604 50.4231H218.658C218.245 51.4912 217.271 52.3114 215.326 52.3114C213.182 52.3114 211.578 51.0464 211.127 48.5869H224.892C224.964 48.017 225 47.6613 225 47.0728ZM211.344 44.881C212.028 42.7436 213.741 41.906 215.452 41.906C217.452 41.906 219.145 43.1711 219.325 44.881H211.344Z" fill="black"/>
</svg>
